<svg width="125" height="33" viewBox="0 0 125 33" fill="none" xmlns="http://www.w3.org/2000/svg">
<path d="M10.2523 11.674V7.95224H0V24.8418H3.86075V18.6388H10.1332V14.917H3.86075V11.674H10.2523Z" fill="#2E2F62"/>
<path d="M21.9785 18.6463C22.8977 18.1951 23.6748 17.4992 24.2241 16.6351C24.7735 15.771 25.074 14.7722 25.0924 13.7484C25.0941 12.9874 24.9454 12.2336 24.6549 11.5303C24.3645 10.8269 23.938 10.1878 23.3999 9.64976C22.8618 9.11168 22.2228 8.68517 21.5194 8.39472C20.816 8.10427 20.0623 7.95559 19.3013 7.95723H12.545V24.8468H16.4057V19.2963H18.2393L21.4252 24.8468H25.5738L21.9785 18.6463ZM19.3013 15.9169H16.4057V11.5773H19.3013C20.3633 11.5773 21.2317 12.5177 21.2317 13.7484C21.2317 14.979 20.3633 15.9194 19.3013 15.9194V15.9169Z" fill="#2E2F62"/>
<path d="M31.2433 21.1299V18.1525H37.2751V14.4728H31.2433V11.674H37.878V7.95224H27.3825V24.8418H37.9996V21.12L31.2433 21.1299Z" fill="#2E2F62"/>
<path d="M44.0314 21.1299V18.1525H50.0632V14.4728H44.0314V11.674H50.6661V7.95224H40.1707V24.8418H50.7877V21.12L44.0314 21.1299Z" fill="#2E2F62"/>
<path d="M60.6803 16.1849L66.3722 7.95721H61.9829L56.8195 15.2917V7.95721H52.9588V24.8468H56.8195V17.0285L62.2236 24.8468H66.6153L60.6803 16.1849Z" fill="#2E2F62"/>
<path d="M68.0619 7.95721V24.8468H71.9226V7.95721H68.0619Z" fill="#2E2F62"/>
<path d="M82.8722 21.4202C79.8799 21.4202 77.9495 19.4179 77.9495 16.4007C77.9495 13.3836 79.8948 11.3838 82.8722 11.3838C84.5842 11.3838 86.0308 12.1554 86.7801 13.458L90.1099 11.5277C89.3372 10.3128 88.2665 9.31591 86.9996 8.63187C85.7327 7.94782 84.3118 7.59941 82.8722 7.61977C77.7808 7.61977 74.0887 11.4309 74.0887 16.4007C74.0887 21.3706 77.7808 25.1842 82.8722 25.1842C85.9588 25.1842 88.6609 23.6632 90.1099 21.2763L86.7851 19.3534C86.0605 20.6486 84.5892 21.4202 82.8722 21.4202Z" fill="#2E2F62"/>
<path d="M99.6451 16.1849L105.339 7.95721H100.948L95.7744 15.2917V7.95721H91.9236V24.8468H95.7744V17.0285L101.179 24.8468H105.57L99.6451 16.1849Z" fill="#2E2F62"/>
<path d="M112.317 25.3083L106.081 16.3387L112.081 7.69172L114.748 3.84586H110.386L107.657 7.69172L101.546 16.3387L107.932 25.3083L110.662 29.1541H114.999L112.317 25.3083Z" fill="#2E2F62"/>
<path d="M121.691 29.1541L119.016 25.3083L112.781 16.3387L124.115 0H119.807L108.245 16.3387L114.632 25.3083L117.361 29.1541L120.09 33H124.368L121.691 29.1541Z" fill="#F7004A"/>
</svg>
